# xmcd
#
# Track frame offsets: 
#        150
#        11339
#        24152
#        37728
#        42527
#        53632
#        65460
#        74870
#
# Disc length: 1201 seconds
#
# Revision: 2
# Processed by: cddbd v1.5.2PL0 Copyright (c) Steve Scherf et al.
# Submitted via: ExactAudioCopy v1.0b3
#
DISCID=6204af08
DTITLE=Petr Brandejs Band - For The Radio
DYEAR=2005
DGENRE=Bluegrass
TTITLE0=You"ll Get No More Of Me
TTITLE1=Flame In My Heart
TTITLE2=Little Tumbleweed
TTITLE3=Bear Creek Hop
TTITLE4=Southbound
TTITLE5=Ain't Gonna Work Tomorrow
TTITLE6=Darling Nellie
TTITLE7=A Few Old Memories
EXTD=
EXTT0=
EXTT1=
EXTT2=
EXTT3=
EXTT4=
EXTT5=
EXTT6=
EXTT7=
PLAYORDER=
